<svg xmlns="http://www.w3.org/2000/svg" version="1.1" width="512" height="512" x="0" y="0" viewBox="0 0 512 512"
    style="enable-background:new 0 0 512 512" xml:space="preserve" class=""><g><path d="M215.496 429.625c-4.181-2.866-19.223-20.466-19.944-23.335-1.912-7.62 3.81-28.386 23.12-83.894 1.437-4.133 2.613-7.785 2.613-8.118 0-.332-2.85 2.276-6.333 5.796-7.965 8.049-15.389 12.95-23.734 15.669-17.39 5.667-30.7.214-40.86-16.736-.69-1.152-2.368-3.464-3.73-5.139-4.61-5.672-6.77-13.534-7.53-27.403l-.48-8.79-4.328 7.214c-9.473 15.79-22.694 31.448-32.558 38.561-17.412 12.557-37.838 13.52-54.604 2.575-7.367-4.81-19.153-16.642-22.425-22.514-6.514-11.688-8.704-23.391-8.703-46.523 0-19.653 1.04-30.048 5.058-50.539 4.989-25.447 15.352-53.495 26.542-71.833 10.14-16.62 23.756-31.662 35.801-39.551 3.764-2.466 8.738-5.832 11.054-7.481 11.11-7.912 23.792-9.018 35.315-3.08 2.087 1.076 6.717 3.428 10.291 5.227 5.1 2.567 7.755 4.526 12.34 9.108 13.243 13.235 19.052 30.395 19.062 56.31v10.79l4.124-6.097c2.268-3.354 6.736-8.73 9.927-11.948 4.942-4.98 6.973-6.429 13.667-9.746l7.863-3.897h6.938c6.01 0 7.488.258 11.05 1.928 2.262 1.06 5.521 3.334 7.242 5.053s5.017 4.264 7.325 5.653c2.307 1.39 6.587 5.026 9.51 8.08 4.25 4.439 6.03 7.042 8.885 12.995 1.965 4.094 4.126 9.718 4.804 12.498.678 2.78 1.391 5.541 1.585 6.137.372 1.145 5.372-8.937 6.282-12.668.993-4.072 3.792-7.319 8.157-9.462 3.835-1.884 4.857-2.057 12.13-2.053 11.965.008 21.004 2.945 31.035 10.096 2.792 1.99 7.44 5.208 10.33 7.15 7.984 5.37 14.506 12.792 18.623 21.196 4.152 8.474 3.842 8.06 4.775 6.393 3.079-5.501 11.133-11.302 20.038-14.43 5.367-1.886 7.201-2.173 14.11-2.21 11.333-.06 15.183 1.291 21.163 7.425 14.12 14.485 13.222 20.907-3.712 26.546-3.198 1.065-6.56 2.682-7.47 3.594-2.1 2.1-1.792 3.903 2.336 13.655 10.398 24.562 12.676 46.376 6.152 58.893-.826 1.584-1.502 2.963-1.502 3.063 0 .1 2.266.054 5.034-.103 4.425-.25 5.426-.055 8.27 1.612 1.78 1.043 3.657 2.493 4.172 3.222.514.729 1.934 1.84 3.155 2.469 3.212 1.654 7.405 6.582 9.58 11.258 2.602 5.592 3.07 14.476.981 18.57-2.702 5.296-6.853 7.508-14.086 7.508-9.507 0-17.373-6.246-23.185-18.41-3.545-7.42-4.254-10.423-3.364-14.26.345-1.488.551-2.707.458-2.707-.092 0-2.75 1.55-5.902 3.445-11.18 6.72-24.569 10.78-33.246 10.084-10.674-.857-24.673-10.91-33.805-24.275l-3.463-5.068-3.814 3.395c-9.074 8.077-23.623 14.262-40.158 17.07-2.426.412-2.788.79-4.048 4.218-3.349 9.117-7.612 22.332-12.37 38.346-6.017 20.247-10.717 32.549-17.487 45.77-5.618 10.969-8.251 15.1-12.447 19.524-5.602 5.908-10.984 7.347-15.613 4.174zm8.607-1.49c9.91-5.125 24.057-33.267 34.324-68.28 6.163-21.022 13.276-41.916 14.757-43.35.641-.623 4.253-1.728 8.025-2.457 12.456-2.406 22.324-6.365 30.738-12.329 5.907-4.186 8.25-7.356 8.25-11.158 0-4.967 2.852-8.932 7.283-10.125 3.203-.863 4.986-3.407 11.372-16.228 6.942-13.939 12.23-31.406 12.281-40.566.032-2.855.39-6.532.832-8.173.655-2.431.58-3.675-.41-6.723-2.128-6.563-6.153-13.381-10.97-18.583-6.849-7.398-7.847-7.647-4.888-1.222 3.713 8.064 4.297 10.879 4.23 20.396-.05 7.147-.395 9.802-1.977 15.162-5.19 17.578-19.022 38.178-34.932 52.023-7.65 6.657-18.416 13.967-24.896 16.906-5.936 2.691-16.476 5.796-19.676 5.796h-2.387l-2.896 8.845c-15.209 46.446-20.851 63.488-23.368 70.574-3.555 10.007-10.414 24.746-13.545 29.105-2.52 3.51-6.785 6.272-9.684 6.272-1.038 0-1.887.265-1.887.59 0 .323 3.021 3.735 6.713 7.58 7.202 7.5 8.515 8.115 12.711 5.945zm207.248-84.044c7.196-3.733 7.3-15.358.232-25.597-1.044-1.512-2.41-3.023-3.035-3.357-.962-.514-1.14-.039-1.17 3.126-.076 8.21-6.533 14.443-15.02 14.503-2.441.016-5.367-.257-6.502-.608-1.983-.615-2.029-.576-1.182 1.006 1.37 2.56 6.405 7.763 9.162 9.467 5.904 3.648 12.275 4.18 17.517 1.46zm-239.477-11.174c9.725-3.72 18.912-11.089 28.056-22.502 2.227-2.78 4.375-5.703 4.772-6.498.398-.794 6.809-19.632 14.246-41.862 7.438-22.23 15.791-46.76 18.564-54.51 5.707-15.952 5.732-16.237 2.388-27.776-3.486-12.03-9.04-20.944-17.278-27.732-1.964-1.619-3.693-2.821-3.842-2.672-.15.15.238 1.77.859 3.6 4.924 14.504 2.307 40.125-7.52 73.626-4.038 13.768-9.689 27.865-17.683 44.115-13.103 26.635-25.948 42.528-40.033 49.533-4.96 2.467-10.94 3.123-16.935 1.857l-2.81-.594 2.398 3.027c3.016 3.808 7.938 7.458 12.607 9.35 5.167 2.094 15.38 1.652 22.21-.962zm-110.51-2.729c4.663-.979 12.967-4.71 17.648-7.931 10.69-7.355 23.368-22.578 34.57-41.508 5.726-9.676 6.2-10.939 7.278-19.35 3.407-26.593 12.346-57.38 23.741-81.764 2.942-6.296 3.333-7.774 4.052-15.346 1.53-16.09-1.002-34.785-6.351-46.9-3.698-8.375-12.79-19.554-18.302-22.504-1.847-.988-1.781-.51.38 2.755 2.308 3.49 5.157 11.669 6.111 17.55 3.081 18.985-1.979 54.265-12.984 90.537-15.25 50.262-29.141 79.339-46.847 98.055-8.116 8.579-19.407 15.3-28.788 17.136-4.398.86-14.038.642-17.113-.388-1.05-.352-.853.035.722 1.42 2.984 2.624 9.969 6.16 15.162 7.675 5.044 1.472 15.094 1.745 20.722.563zm292.982-8.58c9.908-3.366 20.996-9.741 26.607-15.3 5.921-5.866 8.029-11.993 8.04-23.376 0-12.46-2.32-22.46-9.144-39.222-6.41-15.744-5.637-17.734 8.728-22.458 2.955-.972 6.031-2.596 7.542-3.98 2.487-2.28 2.529-2.408 1.685-5.136-.476-1.54-1.474-3.582-2.218-4.54l-1.353-1.741-1.196 2.463c-1.72 3.542-3.759 4.735-11.556 6.761-7.573 1.968-16.934 5.625-19.205 7.505-1.285 1.062-1.354 1.508-.635 4.07.445 1.583 3.357 7.967 6.47 14.187 6.492 12.962 8.33 17.953 9.372 25.449 1.58 11.36-2.252 22.292-10.803 30.813-5.481 5.463-10.329 8.413-18.471 11.242-5.19 1.804-6.764 2.01-15.523 2.029-8.835.02-10.28-.166-15.436-1.98-3.13-1.102-5.818-1.874-5.976-1.716-.518.518 8.717 8.732 13.052 11.61 7.213 4.787 9.866 5.55 18.107 5.211 4.883-.2 8.738-.813 11.913-1.891zM60.872 291.172c2.787-1.35 3.103-1.745 2.734-3.415-2.144-9.706-2.863-17.518-2.898-31.49-.074-28.284 5.573-54.026 17.294-78.864 9.515-20.164 23.62-38.48 38.28-49.709 5.845-4.477 6.04-4.94 4.556-10.83-.908-3.607-3.445-6.078-6.24-6.078-.993 0-4.93 1.476-8.747 3.28-5.796 2.737-7.937 4.257-12.962 9.205-11.87 11.686-19.043 21.687-26.518 36.971-9.961 20.366-16.326 42.127-20.274 69.31-1.776 12.227-1.807 42.49-.051 50.006 1.38 5.912 4.203 11.983 6.106 13.136 1.605.972 4.677.435 8.72-1.522zm112.073-6.127c5.067-6.376 8.393-11.947 14.628-24.508 11.008-22.176 18.664-45.364 22.886-69.32 1.66-9.418 2.642-22.827 1.89-25.822-.434-1.73-.798-1.904-3.978-1.904h-3.5l-6.23 10.288c-15.674 25.879-27.336 61.622-31.155 95.483-1.1 9.751-1.41 20.72-.61 21.52.73.73 1.53-.024 6.07-5.737zm-101.733-2.607c11.93-14.303 22.563-36.367 32.971-68.408 10.714-32.983 15.512-53.738 17.526-75.807 1.153-12.634 1.202-12.533-4.03-8.339-26.516 21.259-44.332 54.182-52.174 96.42-1.794 9.664-1.945 11.94-1.959 29.601 0 17.226.79 27.98 2.278 30.504.688 1.167 1.768.37 5.388-3.97zm282.126-2.02c10.639-1.333 15.992-5.43 14.875-11.385-.266-1.42-3.149-7.797-6.406-14.172-3.257-6.375-6.716-13.54-7.686-15.922-1.225-3.01-1.845-3.892-2.032-2.888-.678 3.654-5.65 17.995-8.384 24.186-1.666 3.773-4.71 9.783-6.765 13.357-3.65 6.348-3.699 6.509-2.117 6.967 2.586.75 11.971.678 18.515-.142zm-67.365-28.746c9.574-8.192 10.424-9.568 14.327-23.195 2.699-9.423 7.476-23.114 10.215-29.276.184-.413-.826-2.105-2.243-3.76-2.897-3.385-10.15-7.305-14.628-7.905-2.815-.378-2.91-.32-3.39 2.042-1.65 8.13-6.775 25.146-17.762 58.984-2.75 8.47-5 15.716-5 16.104 0 1.033 11.714-7.203 18.481-12.994zm21.497-26.812c4.471-8.65 6.43-17.234 4.853-21.265-.434-1.11-1.04-.132-2.841 4.585-2.226 5.829-6.636 19.887-7.611 24.26l-.483 2.167 1.455-1.805c.8-.993 2.883-4.567 4.627-7.942zm135.82 91.79c-1.593-.724-3.921-2.484-5.176-3.913-2.461-2.803-6.989-10.189-7.786-12.702-.27-.851-1.415-2.026-2.543-2.609-6.333-3.275-6.596-8.153-1.464-27.123 1.982-7.323 5.58-20.95 7.997-30.281a6098.815 6098.815 0 0 1 8.624-32.85 4021.18 4021.18 0 0 0 8.992-34.59c2.62-10.287 5.506-20.196 6.415-22.02 2.023-4.063 5.96-6.535 10.432-6.553 4.242-.016 6.173 1.152 12.104 7.32 6.116 6.358 8.97 10.432 12.48 17.812l2.635 5.54-.035 12.275c-.032 11.338-.27 13.512-3.113 28.518-6.404 33.814-10.552 51.664-14.927 64.234-6.27 18.01-15.994 32.51-24.521 36.56-4.32 2.051-6.276 2.125-10.114.382zm11.777-4.617c9.377-6.726 18.737-25.082 24.645-48.33 5.523-21.732 12.521-57.741 13.863-71.332 1.333-13.501-1.042-22.289-8.853-32.756l-3.161-4.237-.468 9.291c-1.254 24.921-17.214 79.498-32.73 111.926-6.063 12.672-8.727 16.548-14.043 20.436l-1.755 1.283 1.943 3.972c2.38 4.867 7.237 10.506 10.197 11.842 3.102 1.4 6.428.727 10.362-2.095z" fill="#000000" opacity="1" data-original="#000000" class=""></path></g></svg>