<svg fill="none" height="32" viewBox="0 0 32 32" width="32" xmlns="http://www.w3.org/2000/svg">
    <path
        d="M24 14C24 15.9778 23.4135 17.9112 22.3147 19.5557C21.2159 21.2002 19.6541 22.4819 17.8268 23.2388C15.9996 23.9957 13.9889 24.1937 12.0491 23.8079C10.1093 23.422 8.32746 22.4696 6.92894 21.0711C5.53041 19.6725 4.578 17.8907 4.19215 15.9509C3.8063 14.0111 4.00433 12.0004 4.76121 10.1732C5.51809 8.3459 6.79981 6.78412 8.4443 5.6853C10.0888 4.58649 12.0222 4 14 4C15.3132 4 16.6136 4.25866 17.8268 4.7612C19.0401 5.26375 20.1425 6.00035 21.0711 6.92893C21.9997 7.85752 22.7363 8.95991 23.2388 10.1732C23.7413 11.3864 24 12.6868 24 14Z"
        fill="#1C1C1C" fill-opacity="0.1" />
    <path
        d="M28.7075 27.2927L22.45 21.0352C24.2672 18.8557 25.1742 16.0595 24.9823 13.2283C24.7904 10.3971 23.5144 7.74894 21.4197 5.83464C19.3249 3.92033 16.5728 2.88731 13.7359 2.95049C10.8989 3.01367 8.19547 4.16817 6.18804 6.17383C4.18061 8.17948 3.02372 10.8819 2.95804 13.7188C2.89235 16.5557 3.92294 19.3087 5.83539 21.4051C7.74785 23.5016 10.3949 24.7799 13.2259 24.9743C16.0569 25.1688 18.8539 24.2642 21.035 22.4489L27.2925 28.7077C27.3854 28.8006 27.4957 28.8743 27.6171 28.9246C27.7385 28.9748 27.8686 29.0007 28 29.0007C28.1314 29.0007 28.2615 28.9748 28.3829 28.9246C28.5043 28.8743 28.6146 28.8006 28.7075 28.7077C28.8004 28.6147 28.8741 28.5044 28.9244 28.3831C28.9747 28.2617 29.0006 28.1316 29.0006 28.0002C29.0006 27.8688 28.9747 27.7387 28.9244 27.6173C28.8741 27.4959 28.8004 27.3856 28.7075 27.2927ZM5 14.0002C5 12.2201 5.52784 10.4801 6.51677 9.00003C7.5057 7.51999 8.91131 6.36643 10.5558 5.68524C12.2004 5.00406 14.01 4.82583 15.7558 5.17309C17.5016 5.52036 19.1053 6.37753 20.364 7.6362C21.6226 8.89487 22.4798 10.4985 22.8271 12.2443C23.1743 13.9902 22.9961 15.7998 22.3149 17.4443C21.6337 19.0888 20.4802 20.4945 19.0001 21.4834C17.5201 22.4723 15.78 23.0002 14 23.0002C11.6139 22.9975 9.32621 22.0485 7.63896 20.3612C5.95171 18.6739 5.00264 16.3863 5 14.0002Z"
        fill="#1C1C1C" />
</svg>
