<svg fill="none" height="32" viewBox="0 0 32 32" width="32" xmlns="http://www.w3.org/2000/svg">
    <path
        d="M27.48 9.14517L16.48 3.12517C16.3328 3.04465 16.1678 3.00244 16 3.00244C15.8322 3.00244 15.6672 3.04465 15.52 3.12517L4.52 9.14767C4.36293 9.23361 4.23181 9.36015 4.14035 9.51406C4.04888 9.66798 4.00041 9.84363 4 10.0227V21.9777C4.00041 22.1567 4.04888 22.3324 4.14035 22.4863C4.23181 22.6402 4.36293 22.7667 4.52 22.8527L15.52 28.8752C15.6672 28.9557 15.8322 28.9979 16 28.9979C16.1678 28.9979 16.3328 28.9557 16.48 28.8752L27.48 22.8527C27.6371 22.7667 27.7682 22.6402 27.8597 22.4863C27.9511 22.3324 27.9996 22.1567 28 21.9777V10.0227C28 9.8432 27.9518 9.66703 27.8603 9.51264C27.7688 9.35824 27.6374 9.23132 27.48 9.14517ZM16 21.0002C15.0111 21.0002 14.0444 20.7069 13.2221 20.1575C12.3999 19.6081 11.759 18.8272 11.3806 17.9136C11.0022 17 10.9031 15.9946 11.0961 15.0247C11.289 14.0548 11.7652 13.1639 12.4645 12.4646C13.1637 11.7654 14.0546 11.2892 15.0245 11.0962C15.9945 10.9033 16.9998 11.0023 17.9134 11.3808C18.827 11.7592 19.6079 12.4001 20.1573 13.2223C20.7068 14.0446 21 15.0113 21 16.0002C21 17.3263 20.4732 18.598 19.5355 19.5357C18.5979 20.4734 17.3261 21.0002 16 21.0002Z"
        fill="#1C1C1C" fill-opacity="0.1" />
    <path
        d="M16 10C14.8133 10 13.6533 10.3519 12.6666 11.0112C11.6799 11.6705 10.9108 12.6076 10.4567 13.7039C10.0026 14.8003 9.88378 16.0067 10.1153 17.1706C10.3468 18.3344 10.9182 19.4035 11.7574 20.2427C12.5965 21.0818 13.6656 21.6532 14.8295 21.8847C15.9933 22.1162 17.1997 21.9974 18.2961 21.5433C19.3925 21.0892 20.3295 20.3201 20.9888 19.3334C21.6481 18.3468 22 17.1867 22 16C21.998 14.4093 21.3652 12.8844 20.2404 11.7596C19.1157 10.6348 17.5907 10.002 16 10ZM16 20C15.2089 20 14.4355 19.7654 13.7777 19.3259C13.1199 18.8864 12.6072 18.2617 12.3045 17.5308C12.0017 16.7999 11.9225 15.9956 12.0769 15.2197C12.2312 14.4437 12.6122 13.731 13.1716 13.1716C13.731 12.6122 14.4437 12.2312 15.2196 12.0769C15.9956 11.9225 16.7998 12.0018 17.5307 12.3045C18.2616 12.6073 18.8864 13.1199 19.3259 13.7777C19.7654 14.4355 20 15.2089 20 16C20 17.0609 19.5786 18.0783 18.8284 18.8284C18.0783 19.5786 17.0609 20 16 20ZM27.96 8.26877L16.96 2.25002C16.6661 2.08763 16.3358 2.00244 16 2.00244C15.6642 2.00244 15.3339 2.08763 15.04 2.25002L4.04 8.27127C3.72586 8.44315 3.46363 8.69622 3.28069 9.00405C3.09775 9.31188 3.00081 9.66319 3 10.0213V21.9763C3.00081 22.3344 3.09775 22.6857 3.28069 22.9935C3.46363 23.3013 3.72586 23.5544 4.04 23.7263L15.04 29.7475C15.3339 29.9099 15.6642 29.9951 16 29.9951C16.3358 29.9951 16.6661 29.9099 16.96 29.7475L27.96 23.7263C28.2741 23.5544 28.5364 23.3013 28.7193 22.9935C28.9023 22.6857 28.9992 22.3344 29 21.9763V10.0225C28.9999 9.6638 28.9032 9.31172 28.7203 9.00317C28.5373 8.69462 28.2747 8.44096 27.96 8.26877ZM16 28L5 21.9775V10.0225L16 4.00002L27 10.0213V21.975L16 28Z"
        fill="#1C1C1C" />
</svg>
