<svg fill="none" height="32" viewBox="0 0 32 32" width="32" xmlns="http://www.w3.org/2000/svg">
    <path d="M28 21L23 26L18 21H28Z" fill="#1C1C1C" fill-opacity="0.1" />
    <path
        d="M16 16C16 16.2652 15.8946 16.5196 15.7071 16.7071C15.5196 16.8946 15.2652 17 15 17H6C5.73478 17 5.48043 16.8946 5.29289 16.7071C5.10536 16.5196 5 16.2652 5 16C5 15.7348 5.10536 15.4804 5.29289 15.2929C5.48043 15.1054 5.73478 15 6 15H15C15.2652 15 15.5196 15.1054 15.7071 15.2929C15.8946 15.4804 16 15.7348 16 16ZM6 9H23C23.2652 9 23.5196 8.89464 23.7071 8.70711C23.8946 8.51957 24 8.26522 24 8C24 7.73478 23.8946 7.48043 23.7071 7.29289C23.5196 7.10536 23.2652 7 23 7H6C5.73478 7 5.48043 7.10536 5.29289 7.29289C5.10536 7.48043 5 7.73478 5 8C5 8.26522 5.10536 8.51957 5.29289 8.70711C5.48043 8.89464 5.73478 9 6 9ZM13 23H6C5.73478 23 5.48043 23.1054 5.29289 23.2929C5.10536 23.4804 5 23.7348 5 24C5 24.2652 5.10536 24.5196 5.29289 24.7071C5.48043 24.8946 5.73478 25 6 25H13C13.2652 25 13.5196 24.8946 13.7071 24.7071C13.8946 24.5196 14 24.2652 14 24C14 23.7348 13.8946 23.4804 13.7071 23.2929C13.5196 23.1054 13.2652 23 13 23ZM28.7075 21.7075L23.7075 26.7075C23.6146 26.8005 23.5043 26.8742 23.3829 26.9246C23.2615 26.9749 23.1314 27.0008 23 27.0008C22.8686 27.0008 22.7385 26.9749 22.6171 26.9246C22.4957 26.8742 22.3854 26.8005 22.2925 26.7075L17.2925 21.7075C17.1525 21.5676 17.0571 21.3894 17.0185 21.1953C16.9798 21.0012 16.9996 20.8 17.0754 20.6172C17.1511 20.4344 17.2794 20.2782 17.444 20.1683C17.6086 20.0584 17.8021 19.9998 18 20H22V14C22 13.7348 22.1054 13.4804 22.2929 13.2929C22.4804 13.1054 22.7348 13 23 13C23.2652 13 23.5196 13.1054 23.7071 13.2929C23.8946 13.4804 24 13.7348 24 14V20H28C28.1979 19.9998 28.3914 20.0584 28.556 20.1683C28.7206 20.2782 28.8489 20.4344 28.9246 20.6172C29.0004 20.8 29.0202 21.0012 28.9815 21.1953C28.9429 21.3894 28.8475 21.5676 28.7075 21.7075ZM25.5825 22H20.4137L23 24.5863L25.5825 22Z"
        fill="#1C1C1C" />
</svg>
