<svg fill="none" height="32" viewBox="0 0 32 32" width="32" xmlns="http://www.w3.org/2000/svg">
    <path d="M28 11H18L23 6L28 11Z" fill="#1C1C1C" fill-opacity="0.1" />
    <path
        d="M5 15.9998C5 15.7346 5.10536 15.4802 5.29289 15.2927C5.48043 15.1052 5.73478 14.9998 6 14.9998H15C15.2652 14.9998 15.5196 15.1052 15.7071 15.2927C15.8946 15.4802 16 15.7346 16 15.9998C16 16.265 15.8946 16.5194 15.7071 16.7069C15.5196 16.8945 15.2652 16.9998 15 16.9998H6C5.73478 16.9998 5.48043 16.8945 5.29289 16.7069C5.10536 16.5194 5 16.265 5 15.9998ZM6 8.99981H13C13.2652 8.99981 13.5196 8.89445 13.7071 8.70692C13.8946 8.51938 14 8.26503 14 7.99981C14 7.73459 13.8946 7.48024 13.7071 7.2927C13.5196 7.10517 13.2652 6.99981 13 6.99981H6C5.73478 6.99981 5.48043 7.10517 5.29289 7.2927C5.10536 7.48024 5 7.73459 5 7.99981C5 8.26503 5.10536 8.51938 5.29289 8.70692C5.48043 8.89445 5.73478 8.99981 6 8.99981ZM23 22.9998H6C5.73478 22.9998 5.48043 23.1052 5.29289 23.2927C5.10536 23.4802 5 23.7346 5 23.9998C5 24.265 5.10536 24.5194 5.29289 24.7069C5.48043 24.8945 5.73478 24.9998 6 24.9998H23C23.2652 24.9998 23.5196 24.8945 23.7071 24.7069C23.8946 24.5194 24 24.265 24 23.9998C24 23.7346 23.8946 23.4802 23.7071 23.2927C23.5196 23.1052 23.2652 22.9998 23 22.9998ZM28.9237 11.3823C28.8481 11.5651 28.72 11.7213 28.5555 11.8312C28.3911 11.9411 28.1978 11.9998 28 11.9998H24V17.9998C24 18.265 23.8946 18.5194 23.7071 18.7069C23.5196 18.8945 23.2652 18.9998 23 18.9998C22.7348 18.9998 22.4804 18.8945 22.2929 18.7069C22.1054 18.5194 22 18.265 22 17.9998V11.9998H18C17.8021 12 17.6086 11.9414 17.444 11.8315C17.2794 11.7217 17.1511 11.5654 17.0754 11.3826C16.9996 11.1998 16.9798 10.9986 17.0185 10.8045C17.0571 10.6104 17.1525 10.4322 17.2925 10.2923L22.2925 5.29231C22.3854 5.19933 22.4957 5.12557 22.6171 5.07525C22.7385 5.02493 22.8686 4.99902 23 4.99902C23.1314 4.99902 23.2615 5.02493 23.3829 5.07525C23.5043 5.12557 23.6146 5.19933 23.7075 5.29231L28.7075 10.2923C28.8473 10.4322 28.9425 10.6105 28.981 10.8045C29.0195 10.9985 28.9995 11.1996 28.9237 11.3823ZM25.5863 9.99981L23 7.41356L20.4137 9.99981H25.5863Z"
        fill="#1C1C1C" />
</svg>
