<svg width="16" height="16" viewBox="0 0 16 16" fill="none" xmlns="http://www.w3.org/2000/svg">
    <rect width="16" height="16" fill="white" fill-opacity="0.01" />
    <path
        d="M8 1C6.15044 1.02238 4.38293 1.76706 3.075 3.075C1.76706 4.38293 1.02238 6.15044 1 8C1.02238 9.84956 1.76706 11.6171 3.075 12.925C4.38293 14.2329 6.15044 14.9776 8 15C9.84956 14.9776 11.6171 14.2329 12.925 12.925C14.2329 11.6171 14.9776 9.84956 15 8C14.9776 6.15044 14.2329 4.38293 12.925 3.075C11.6171 1.76706 9.84956 1.02238 8 1ZM12 8.5H8.5V12H7.5V8.5H4V7.5H7.5V4H8.5V7.5H12V8.5Z"
        fill="#161616" />
</svg>
