<svg width="16" height="16" viewBox="0 0 16 16" fill="none" xmlns="http://www.w3.org/2000/svg">
    <rect width="16" height="16" fill="white" fill-opacity="0.01" />
    <path
        d="M3.5 14C3.36739 14 3.24021 13.9474 3.14645 13.8536C3.05268 13.7598 3 13.6326 3 13.5V2.50004C2.99999 2.41315 3.02263 2.32775 3.06568 2.25228C3.10873 2.1768 3.17071 2.11384 3.2455 2.06962C3.32029 2.02539 3.40532 2.00142 3.4922 2.00006C3.57908 1.99871 3.66481 2.02001 3.74095 2.06189L13.7409 7.56189C13.8194 7.60503 13.8848 7.66845 13.9304 7.74552C13.976 7.82259 14 7.91048 14 8.00001C14 8.08955 13.976 8.17744 13.9304 8.25451C13.8848 8.33158 13.8194 8.39499 13.7409 8.43814L3.74095 13.9381C3.66713 13.9787 3.58425 14 3.5 14ZM4 3.34549V12.6544L12.4624 8.00004L4 3.34549Z"
        fill="#161616" />
</svg>
