<svg width="16" height="16" viewBox="0 0 16 16" fill="none" xmlns="http://www.w3.org/2000/svg">
    <rect width="16" height="16" fill="white" fill-opacity="0.01" style="mix-blend-mode:multiply" />
    <path
        d="M5.00001 3L5.70701 2.293L7.50001 4.086V0H8.50001V4.086L10.293 2.293L11 3L8.00001 6L5.00001 3Z"
        fill="#161616" />
    <path
        d="M11 8C11.0005 7.60596 10.9232 7.2157 10.7724 6.85164C10.6216 6.48759 10.4003 6.15693 10.1214 5.87865L8.00001 8L5.87866 5.87865C5.52981 6.22751 5.27239 6.65701 5.12918 7.12911C4.98597 7.60122 4.96141 8.10136 5.05766 8.58523C5.15391 9.0691 5.368 9.52176 5.68098 9.90312C5.99396 10.2845 6.39616 10.5828 6.85195 10.7716C7.30775 10.9604 7.80307 11.0338 8.29404 10.9855C8.78501 10.9371 9.25648 10.7685 9.66669 10.4944C10.0769 10.2203 10.4132 9.84926 10.6458 9.41417C10.8783 8.97908 11 8.49335 11 8Z"
        fill="#161616" />
    <path
        d="M15 8C15.0006 7.0808 14.8195 6.17054 14.4673 5.3215C14.1151 4.47246 13.5986 3.70137 12.9475 3.0525L12.2407 3.7594C13.0804 4.5983 13.6524 5.66739 13.8843 6.83142C14.1163 7.99546 13.9978 9.20214 13.5438 10.2988C13.0898 11.3955 12.3208 12.3329 11.334 12.9924C10.3472 13.6519 9.18693 14.004 8.00001 14.004C6.81309 14.004 5.65283 13.6519 4.66602 12.9924C3.6792 12.3329 2.91017 11.3955 2.45621 10.2988C2.00224 9.20214 1.88374 7.99546 2.1157 6.83142C2.34766 5.66739 2.91965 4.5983 3.75931 3.7594L3.05251 3.0525C2.23862 3.86638 1.63803 4.86842 1.30393 5.96987C0.969835 7.07132 0.912549 8.23816 1.13715 9.36704C1.36175 10.4959 1.8613 11.552 2.59155 12.4417C3.3218 13.3313 4.2602 14.0272 5.32363 14.4676C6.38706 14.9079 7.54269 15.0792 8.68813 14.9663C9.83358 14.8533 10.9335 14.4596 11.8904 13.82C12.8473 13.1804 13.6318 12.3147 14.1742 11.2995C14.7166 10.2843 15.0002 9.151 15 8Z"
        fill="#161616" />
</svg>
