<svg xmlns="http://www.w3.org/2000/svg" version="1.1" width="512" height="512" x="0" y="0"
    viewBox="0 0 1707 1707" style="enable-background:new 0 0 512 512" xml:space="preserve"
    fill-rule="evenodd" class=""><g><path d="M791 1687c-16 0-29-13-29-29v-320c0-38 58-38 58 0v320c0 16-13 29-29 29zm810-38c-5 0-11-1-15-4L512 998c-21-12-17-44 6-52l193-63L7 67C-9 49 4 19 29 19h1415c11 0 21 6 26 16l234 472c9 19-5 42-26 42h-188l214 429c9 20-5 42-26 42h-197l149 600c0 16-13 29-29 29zM597 981l682 412-129-520c-5-18 9-36 28-36h187l-213-430c-10-19 4-41 26-41h187L1222 77H92l691 801c14 15 7 40-12 46zm753 454 206 124-141-561c-4-18 10-36 29-36h187l-213-429c-10-20 4-42 26-42h187L1426 77h-139l151 305c9 19-5 42-26 42h-188l214 429c9 19-5 42-26 42h-197zM119 826c-29 0-40-40-14-54l200-116c33-19 62 31 29 50L134 822c-5 2-10 4-15 4zm141-221H29c-38 0-38-58 0-58h231c38 0 38 58 0 58zm-24 426c-22 0-36-24-25-44l116-200c19-33 69-4 50 29l-116 200c-5 9-15 15-25 15zm295 531c-22 0-36-24-25-43l160-278c20-33 70-4 51 29l-161 278c-5 9-15 14-25 14zm-238-162c-29 0-40-39-14-54l277-160c33-19 62 31 29 50l-277 160c-5 3-10 4-15 4z" fill="#000000" opacity="1"  class=""></path></g></svg>