<svg width="16" height="16" viewBox="0 0 16 16" fill="none" xmlns="http://www.w3.org/2000/svg">
    <rect width="16" height="16" fill="white" fill-opacity="0.01" />
    <path
        d="M9 14.0001C7.2036 14.0001 5.5167 13.205 4.3717 11.8185L5.1427 11.1817C6.09705 12.3373 7.50305 13.0001 9 13.0001C11.757 13.0001 14 10.757 14 8.00005C14 5.24305 11.757 3.00005 9 3.00005C7.50305 3.00005 6.09705 3.66285 5.1427 4.81845L4.3717 4.1816C5.5167 2.7952 7.2036 2 9 2C12.3084 2 15 4.6916 15 8C15 11.3084 12.3084 14.0001 9 14.0001Z"
        fill="#161616" />
    <path
        d="M11.5 8.0001L8 4.5001L7.29295 5.20715L9.58595 7.5001H1V8.5001H9.58595L7.29295 10.793L8 11.5001L11.5 8.0001Z"
        fill="#161616" />
</svg>
