<svg width="170" height="292" viewBox="0 0 170 292" fill="none" xmlns="http://www.w3.org/2000/svg">
    <circle cx="85" cy="207" r="82.5" stroke="white" stroke-width="5" />
    <path
        d="M1 214V0H169V214L164.044 180.689L147.195 152.425L117.46 130.722L84.2566 125.17L59.9734 127.693L39.6549 137.788L8.9292 174.127L1 214Z"
        fill="url(#paint0_linear_21_320)" />
    <path
        d="M101.231 226.995C101.583 227.338 101.826 227.777 101.929 228.258C102.031 228.738 101.989 229.238 101.807 229.695C101.625 230.151 101.312 230.544 100.908 230.822C100.503 231.101 100.025 231.253 99.5336 231.26C98.8867 231.249 98.2668 230.998 97.7945 230.556C94.35 227.261 89.7669 225.422 85 225.422C80.2331 225.422 75.65 227.261 72.2055 230.556C71.7332 231.017 71.0972 231.272 70.4371 231.264C69.7771 231.257 69.1472 230.987 68.6859 230.515C68.2247 230.043 67.9699 229.407 67.9777 228.746C67.9855 228.086 68.2551 227.457 68.7273 226.995C73.0988 222.802 78.9218 220.461 84.9793 220.461C91.0367 220.461 96.8598 222.802 101.231 226.995ZM118.332 193.125L126.489 184.927C126.95 184.465 127.209 183.84 127.209 183.187C127.209 182.535 126.95 181.91 126.489 181.448C126.028 180.987 125.402 180.728 124.75 180.728C124.098 180.728 123.472 180.987 123.011 181.448L114.812 189.605L106.614 181.448C106.153 180.987 105.527 180.728 104.875 180.728C104.223 180.728 103.597 180.987 103.136 181.448C102.675 181.91 102.416 182.535 102.416 183.187C102.416 183.84 102.675 184.465 103.136 184.927L111.293 193.125L103.136 201.323C102.908 201.552 102.726 201.823 102.603 202.121C102.479 202.42 102.416 202.74 102.416 203.062C102.416 203.385 102.479 203.705 102.603 204.004C102.726 204.302 102.908 204.573 103.136 204.802C103.364 205.03 103.635 205.211 103.934 205.335C104.232 205.458 104.552 205.522 104.875 205.522C105.198 205.522 105.518 205.458 105.816 205.335C106.115 205.211 106.386 205.03 106.614 204.802L114.812 196.645L123.011 204.802C123.239 205.03 123.51 205.211 123.809 205.335C124.107 205.458 124.427 205.522 124.75 205.522C125.073 205.522 125.393 205.458 125.691 205.335C125.99 205.211 126.261 205.03 126.489 204.802C126.717 204.573 126.899 204.302 127.022 204.004C127.146 203.705 127.209 203.385 127.209 203.062C127.209 202.74 127.146 202.42 127.022 202.121C126.899 201.823 126.717 201.552 126.489 201.323L118.332 193.125ZM91.3765 186.003C92.0296 186.073 92.6838 185.881 93.1959 185.47C93.708 185.059 94.0364 184.461 94.1094 183.809C94.1682 183.158 93.9725 182.509 93.5632 182C93.154 181.49 92.5631 181.159 91.9148 181.076C89.6183 180.827 87.31 180.702 85 180.703C68.3813 180.648 52.4188 187.184 40.6125 198.88C40.1547 199.352 39.8986 199.983 39.8986 200.64C39.8986 201.297 40.1547 201.929 40.6125 202.4C40.8404 202.637 41.1137 202.825 41.4161 202.954C41.7185 203.082 42.0437 203.148 42.3723 203.148C42.7008 203.148 43.026 203.082 43.3284 202.954C43.6308 202.825 43.9041 202.637 44.132 202.4C55.004 191.635 69.7003 185.62 85 185.672C87.1117 185.672 89.2648 185.796 91.3765 186.003ZM91.2523 206.044C91.8713 206.087 92.4841 205.898 92.9702 205.512C93.4564 205.126 93.7806 204.573 93.8793 203.96C93.9779 203.348 93.8438 202.721 93.5032 202.202C93.1627 201.683 92.6404 201.311 92.039 201.158C89.7118 200.778 87.358 200.584 85 200.578C73.6642 200.529 62.7689 204.964 54.6906 212.917C54.336 213.262 54.0925 213.705 53.9914 214.19C53.8902 214.674 53.936 215.178 54.1228 215.636C54.3096 216.094 54.629 216.486 55.04 216.761C55.451 217.037 55.9349 217.183 56.4297 217.182C57.0766 217.171 57.6964 216.92 58.1687 216.478C65.3212 209.439 74.9647 205.51 85 205.547C87.0939 205.548 89.1845 205.714 91.2523 206.044ZM85 238.672C84.181 238.672 83.3805 238.915 82.6996 239.37C82.0187 239.825 81.4879 240.471 81.1746 241.228C80.8612 241.985 80.7792 242.817 80.9389 243.62C81.0987 244.423 81.493 245.161 82.0721 245.74C82.6512 246.319 83.389 246.714 84.1922 246.874C84.9954 247.033 85.8279 246.951 86.5845 246.638C87.3411 246.325 87.9878 245.794 88.4428 245.113C88.8978 244.432 89.1406 243.631 89.1406 242.812C89.1406 241.714 88.7044 240.661 87.9279 239.885C87.1513 239.108 86.0981 238.672 85 238.672Z"
        fill="white" />
    <defs>
        <linearGradient id="paint0_linear_21_320" x1="85" y1="-27" x2="85" y2="214"
            gradientUnits="userSpaceOnUse">
            <stop offset="0.151633" stop-color="white" stop-opacity="0" />
            <stop offset="1" stop-color="white" />
        </linearGradient>
    </defs>
</svg>
