<svg width="16" height="16" viewBox="0 0 16 16" fill="none" xmlns="http://www.w3.org/2000/svg">
    <rect width="16" height="16" fill="white" fill-opacity="0.01" />
    <path
        d="M15 9C15.001 8.49933 14.8767 8.00636 14.6384 7.56603C14.4001 7.12571 14.0554 6.75203 13.6357 6.47905C13.2159 6.20608 12.7346 6.04248 12.2355 6.00319C11.7363 5.9639 11.2353 6.05015 10.778 6.25409C10.3208 6.45802 9.92183 6.77316 9.61756 7.17077C9.31328 7.56838 9.11336 8.03582 9.03602 8.53049C8.95867 9.02515 9.00636 9.53131 9.17474 10.0028C9.34311 10.4743 9.62682 10.8962 10 11.23V15L12 14.0537L14 15V11.23C14.3143 10.9497 14.5659 10.6061 14.7382 10.2218C14.9106 9.83754 14.9998 9.42117 15 9ZM13 13.42L12 12.9466L11 13.42V11.825C11.6462 12.0584 12.3538 12.0584 13 11.825V13.42ZM12 11C11.6044 11 11.2178 10.8827 10.8889 10.6629C10.56 10.4432 10.3036 10.1308 10.1522 9.76537C10.0009 9.39991 9.96126 8.99778 10.0384 8.60982C10.1156 8.22186 10.3061 7.86549 10.5858 7.58579C10.8655 7.30608 11.2219 7.1156 11.6098 7.03843C11.9978 6.96126 12.3999 7.00087 12.7654 7.15224C13.1308 7.30362 13.4432 7.55996 13.6629 7.88886C13.8827 8.21776 14 8.60444 14 9C13.9994 9.53025 13.7885 10.0386 13.4136 10.4136C13.0386 10.7885 12.5303 10.9994 12 11Z"
        fill="#161616" />
    <path d="M8 7H4.5V8H8V7Z" fill="#161616" />
    <path d="M9.5 4H4.5V5H9.5V4Z" fill="#161616" />
    <path
        d="M3 15C2.73487 14.9997 2.48068 14.8943 2.2932 14.7068C2.10572 14.5193 2.00028 14.2651 2 14V2C2.00028 1.73487 2.10572 1.48068 2.2932 1.2932C2.48068 1.10572 2.73487 1.00028 3 1H11C11.2651 1.00028 11.5193 1.10572 11.7068 1.2932C11.8943 1.48068 11.9997 1.73487 12 2V4H11V2H3V14H8V15H3Z"
        fill="#161616" />
</svg>
