<svg width="170" height="292" viewBox="0 0 170 292" fill="none" xmlns="http://www.w3.org/2000/svg">
    <circle cx="85" cy="207" r="82.5" stroke="white" stroke-width="5"/>
    <path d="M1 214V0H169V214L164.044 180.689L147.195 152.425L117.46 130.722L84.2566 125.17L59.9734 127.693L39.6549 137.788L8.9292 174.127L1 214Z" fill="url(#paint0_linear_102_358)"/>
    <path d="M127 244.606L103.535 221.142C109.174 214.372 111.986 205.69 111.385 196.901C110.786 188.112 106.82 179.892 100.314 173.952C93.8078 168.012 85.2622 164.809 76.4547 165.009C67.6472 165.209 59.2559 168.797 53.0265 175.026C46.797 181.256 43.209 189.647 43.0088 198.455C42.8087 207.262 46.0118 215.808 51.9519 222.314C57.892 228.82 66.1116 232.785 74.9009 233.385C83.6903 233.985 92.3726 231.174 99.1417 225.535L122.606 249L127 244.606ZM49.3241 199.287C49.3241 193.757 50.9641 188.35 54.0367 183.752C57.1094 179.153 61.4766 175.569 66.5863 173.453C71.6959 171.336 77.3184 170.782 82.7427 171.861C88.1671 172.94 93.1497 175.604 97.0605 179.514C100.971 183.425 103.634 188.408 104.713 193.832C105.793 199.256 105.238 204.879 103.122 209.988C101.006 215.098 97.4215 219.465 92.823 222.538C88.2244 225.61 82.818 227.251 77.2874 227.251C69.8736 227.242 62.7657 224.294 57.5234 219.051C52.281 213.809 49.3323 206.701 49.3241 199.287Z" fill="white"/>
    <defs>
        <linearGradient id="paint0_linear_102_358" x1="85" y1="-27" x2="85" y2="214" gradientUnits="userSpaceOnUse">
            <stop offset="0.151633" stop-color="white" stop-opacity="0"/>
            <stop offset="1" stop-color="white"/>
        </linearGradient>
    </defs>
</svg>
