<svg width="16" height="16" viewBox="0 0 16 16" fill="none" xmlns="http://www.w3.org/2000/svg">
    <rect width="16" height="16" fill="white" fill-opacity="0.01" style="mix-blend-mode:multiply" />
    <path
        d="M5 14C4.86739 14 4.74021 13.9473 4.64645 13.8536C4.55268 13.7598 4.5 13.6326 4.5 13.5V2.5C4.50002 2.41219 4.52317 2.32594 4.56711 2.24992C4.61105 2.1739 4.67423 2.11079 4.7503 2.06694C4.82638 2.02309 4.91266 2.00004 5.00046 2.00013C5.08827 2.00021 5.17451 2.02341 5.2505 2.0674L14.7505 7.5674C14.8263 7.61135 14.8892 7.67444 14.9329 7.75034C14.9766 7.82625 14.9996 7.91231 14.9996 7.9999C14.9996 8.0875 14.9766 8.17355 14.9329 8.24946C14.8892 8.32536 14.8263 8.38845 14.7505 8.4324L5.2505 13.9324C5.17443 13.9766 5.088 14 5 14Z"
        fill="#161616" />
    <path d="M3 2H2V14H3V2Z" fill="#161616" />
</svg>
