<svg width="16" height="16" viewBox="0 0 16 16" fill="none" xmlns="http://www.w3.org/2000/svg">
    <rect width="16" height="16" fill="white" fill-opacity="0.01" style="mix-blend-mode:multiply" />
    <path
        d="M10.5001 14.2089L8.00006 11.7084L8.70656 11.0019L10.5001 12.7949L14.2926 9.00191L15.0001 9.70941L10.5001 14.2089Z"
        fill="#161616" />
    <path
        d="M6.00006 7.79691L4.70506 6.50191L4.00006 7.20691L6.00006 9.20691L9.50006 5.70691L8.79506 5.00191L6.00006 7.79691Z"
        fill="#161616" />
    <path
        d="M5.90971 12.903C4.74415 12.6866 3.66888 12.1296 2.81979 11.3024C1.97069 10.4751 1.38588 9.41467 1.13925 8.25514C0.892624 7.09561 0.995249 5.88899 1.43416 4.78776C1.87307 3.68653 2.62856 2.74012 3.60517 2.06813C4.58178 1.39613 5.73567 1.02871 6.92103 1.01229C8.10639 0.995878 9.27001 1.33121 10.2649 1.9759C11.2597 2.62059 12.0411 3.54572 12.5103 4.63437C12.9796 5.72302 13.1156 6.92634 12.9012 8.09226L11.9178 7.91156C12.0976 6.93908 11.985 5.93512 11.5942 5.02664C11.2034 4.11815 10.5521 3.34593 9.72245 2.80762C8.89284 2.26932 7.92223 1.98909 6.93336 2.00239C5.94449 2.01569 4.98177 2.32191 4.16692 2.88233C3.35208 3.44275 2.72171 4.2322 2.35552 5.15087C1.98933 6.06953 1.90377 7.07615 2.10965 8.04345C2.31554 9.01074 2.80362 9.89526 3.51218 10.5852C4.22074 11.2751 5.11797 11.7394 6.09041 11.9194L5.90971 12.903Z"
        fill="#161616" />
</svg>
