<svg width="170" height="292" viewBox="0 0 170 292" fill="none" xmlns="http://www.w3.org/2000/svg">
    <circle cx="85" cy="207" r="82.5" stroke="white" stroke-width="5" />
    <path
        d="M1 214V0H169V214L164.044 180.689L147.195 152.425L117.46 130.722L84.2566 125.17L59.9734 127.693L39.6549 137.788L8.9292 174.127L1 214Z"
        fill="url(#paint0_linear_102_358)" />
    <g clip-path="url(#clip0_102_358)">
        <g style="mix-blend-mode:multiply">
            <path d="M127 165H43V249H127V165Z" fill="white" fill-opacity="0.01" />
        </g>
        <path
            d="M111.25 228V238.5H58.75V228H53.5V238.5C53.5 239.892 54.0531 241.228 55.0377 242.212C56.0223 243.197 57.3576 243.75 58.75 243.75H111.25C112.642 243.75 113.978 243.197 114.962 242.212C115.947 241.228 116.5 239.892 116.5 238.5V228H111.25Z"
            fill="white" />
        <path
            d="M111.25 201.75L107.549 198.049L87.625 217.946V170.25H82.375V217.946L62.4512 198.049L58.75 201.75L85 228L111.25 201.75Z"
            fill="white" />
    </g>
    <defs>
        <linearGradient id="paint0_linear_102_358" x1="85" y1="-27" x2="85" y2="214"
            gradientUnits="userSpaceOnUse">
            <stop offset="0.151633" stop-color="white" stop-opacity="0" />
            <stop offset="1" stop-color="white" />
        </linearGradient>
        <clipPath id="clip0_102_358">
            <rect width="84" height="84" fill="white" transform="translate(43 165)" />
        </clipPath>
    </defs>
</svg>
