<svg width="170" height="292" viewBox="0 0 170 292" fill="none" xmlns="http://www.w3.org/2000/svg">
    <circle cx="85" cy="207" r="82.5" stroke="white" stroke-width="5" />
    <path
        d="M1 214V0H169V214L164.044 180.689L147.195 152.425L117.46 130.722L84.2566 125.17L59.9734 127.693L39.6549 137.788L8.9292 174.127L1 214Z"
        fill="url(#paint0_linear_102_358)" />
    <g clip-path="url(#clip0_102_358)">
        <g style="mix-blend-mode:multiply">
            <path d="M127 165H43V249H127V165Z" fill="white" fill-opacity="0.01" />
        </g>
        <path
            d="M101.931 180.75C103.842 180.748 105.735 181.128 107.497 181.868C109.26 182.607 110.857 183.69 112.195 185.055C114.952 187.854 116.498 191.626 116.498 195.555C116.498 199.484 114.952 203.256 112.195 206.055L85 233.591L57.805 206.055C55.0477 203.256 53.5021 199.484 53.5021 195.555C53.5021 191.626 55.0477 187.854 57.805 185.055C59.144 183.691 60.7413 182.608 62.5036 181.869C64.2658 181.13 66.1577 180.749 68.0688 180.749C69.9798 180.749 71.8718 181.13 73.634 181.869C75.3963 182.608 76.9935 183.691 78.3325 185.055L85 191.88L91.6413 185.108C92.9754 183.727 94.5743 182.629 96.3426 181.88C98.1103 181.132 100.011 180.747 101.931 180.75ZM101.931 175.5C99.3209 175.498 96.7369 176.017 94.3296 177.026C91.9225 178.036 89.7413 179.516 87.9138 181.38L85 184.32L82.0863 181.38C80.2565 179.52 78.0747 178.042 75.6681 177.034C73.2615 176.025 70.6782 175.506 68.0688 175.506C65.4594 175.506 62.8761 176.025 60.4695 177.034C58.0628 178.042 55.881 179.52 54.0513 181.38C50.3287 185.17 48.2429 190.269 48.2429 195.581C48.2429 200.893 50.3287 205.993 54.0513 209.783L85 241.125L115.949 209.783C119.671 205.993 121.757 200.893 121.757 195.581C121.757 190.269 119.671 185.17 115.949 181.38C114.12 179.519 111.938 178.04 109.531 177.031C107.125 176.021 104.541 175.501 101.931 175.5Z"
            fill="white" />
    </g>
    <defs>
        <linearGradient id="paint0_linear_102_358" x1="85" y1="-27" x2="85" y2="214"
            gradientUnits="userSpaceOnUse">
            <stop offset="0.151633" stop-color="white" stop-opacity="0" />
            <stop offset="1" stop-color="white" />
        </linearGradient>
        <clipPath id="clip0_102_358">
            <rect width="84" height="84" fill="white" transform="translate(43 165)" />
        </clipPath>
    </defs>
</svg>
