<svg width="16" height="16" viewBox="0 0 16 16" fill="none" xmlns="http://www.w3.org/2000/svg">
    <rect width="16" height="16" fill="white" fill-opacity="0.01" style="mix-blend-mode:multiply" />
    <path
        d="M14.625 3.38041C14.3463 3.10073 14.0151 2.87882 13.6504 2.72741C13.2858 2.57599 12.8948 2.49805 12.5 2.49805C12.1051 2.49805 11.7142 2.57599 11.3495 2.72741C10.9849 2.87882 10.6537 3.10073 10.375 3.38041L11.085 4.09041C11.2711 3.90426 11.4921 3.7566 11.7353 3.65586C11.9786 3.55512 12.2392 3.50326 12.5025 3.50326C12.7657 3.50326 13.0264 3.55512 13.2696 3.65586C13.5128 3.7566 13.7338 3.90426 13.92 4.09041C14.1061 4.27656 14.2538 4.49755 14.3545 4.74077C14.4553 4.98398 14.5071 5.24466 14.5071 5.50791C14.5071 5.77117 14.4553 6.03184 14.3545 6.27506C14.2538 6.51827 14.1061 6.73926 13.92 6.92541L9.91998 10.9254C9.5447 11.3014 9.03545 11.5128 8.50425 11.5133C7.97306 11.5138 7.46343 11.3032 7.08748 10.9279C6.71154 10.5526 6.50007 10.0434 6.4996 9.51218C6.49914 8.98098 6.7097 8.47136 7.08498 8.09541L7.78998 7.38541L7.08498 6.67541L6.37498 7.38541C6.0953 7.66412 5.87339 7.9953 5.72198 8.35996C5.57056 8.72461 5.49262 9.11557 5.49262 9.51041C5.49262 9.90525 5.57056 10.2962 5.72198 10.6609C5.87339 11.0255 6.0953 11.3567 6.37498 11.6354C6.94073 12.1939 7.70502 12.505 8.49998 12.5004C8.89634 12.502 9.28909 12.4251 9.65555 12.2741C10.022 12.123 10.3549 11.9009 10.635 11.6204L14.635 7.62041C15.1955 7.05659 15.5092 6.29335 15.5073 5.49834C15.5055 4.70334 15.1881 3.94159 14.625 3.38041Z"
        fill="#161616" />
    <path
        d="M2.09498 12.4104C1.90828 12.2246 1.76013 12.0037 1.65904 11.7604C1.55794 11.5172 1.5059 11.2563 1.5059 10.9929C1.5059 10.7295 1.55794 10.4687 1.65904 10.2254C1.76013 9.98214 1.90828 9.76125 2.09498 9.57541L6.09498 5.57541C6.28082 5.38871 6.50171 5.24056 6.74497 5.13946C6.98823 5.03837 7.24906 4.98633 7.51248 4.98633C7.77591 4.98633 8.03674 5.03837 8.28 5.13946C8.52326 5.24056 8.74415 5.38871 8.92999 5.57541C9.11551 5.76271 9.26155 5.98535 9.35946 6.23012C9.45737 6.4749 9.50516 6.73683 9.49998 7.00041C9.50151 7.26481 9.45059 7.5269 9.35018 7.77149C9.24977 8.01609 9.10185 8.23835 8.91498 8.42541L7.85498 9.50041L8.56498 10.2104L9.62498 9.15041C10.1892 8.58616 10.5062 7.82088 10.5062 7.02291C10.5062 6.22495 10.1892 5.45966 9.62498 4.89541C9.06074 4.33116 8.29545 4.01417 7.49748 4.01417C6.69952 4.01417 5.93423 4.33116 5.36998 4.89541L1.36998 8.89541C1.08955 9.17421 0.867007 9.5057 0.715146 9.87082C0.563286 10.2359 0.485107 10.6275 0.485107 11.0229C0.485107 11.4184 0.563286 11.8099 0.715146 12.175C0.867007 12.5401 1.08955 12.8716 1.36998 13.1504C1.9394 13.7047 2.70543 14.0103 3.49998 14.0004C4.30154 14.0012 5.07084 13.6848 5.63998 13.1204L4.92998 12.4104C4.74415 12.5971 4.52326 12.7453 4.28 12.8464C4.03674 12.9475 3.77591 12.9995 3.51248 12.9995C3.24906 12.9995 2.98823 12.9475 2.74497 12.8464C2.50171 12.7453 2.28082 12.5971 2.09498 12.4104Z"
        fill="#161616" />
</svg>
