<svg width="170" height="292" viewBox="0 0 170 292" fill="none" xmlns="http://www.w3.org/2000/svg">
    <circle cx="85" cy="207" r="82.5" stroke="white" stroke-width="5" />
    <path
        d="M1 214V0H169V214L164.044 180.689L147.195 152.425L117.46 130.722L84.2566 125.17L59.9734 127.693L39.6549 137.788L8.9292 174.127L1 214Z"
        fill="url(#paint0_linear_21_305)" />
    <path
        d="M57.55 184.86C57.5363 185.183 57.5888 185.505 57.7043 185.807C57.8198 186.109 57.9958 186.384 58.2215 186.615C58.4473 186.847 58.7179 187.03 59.0169 187.152C59.3159 187.275 59.6368 187.336 59.96 187.33H68.21C69.59 187.33 70.69 186.2 70.87 184.83C71.77 178.27 76.27 173.49 84.29 173.49C91.15 173.49 97.43 176.92 97.43 185.17C97.43 191.52 93.69 194.44 87.78 198.88C81.05 203.77 75.72 209.48 76.1 218.75L76.13 220.92C76.1405 221.576 76.4085 222.202 76.8762 222.662C77.3439 223.122 77.9738 223.38 78.63 223.38H86.74C87.403 223.38 88.0389 223.117 88.5077 222.648C88.9766 222.179 89.24 221.543 89.24 220.88V219.83C89.24 212.65 91.97 210.56 99.34 204.97C105.43 200.34 111.78 195.2 111.78 184.41C111.78 169.3 99.02 162 85.05 162C72.38 162 58.5 167.9 57.55 184.86ZM73.12 242.49C73.12 247.82 77.37 251.76 83.22 251.76C89.31 251.76 93.5 247.82 93.5 242.49C93.5 236.97 89.3 233.09 83.21 233.09C77.37 233.09 73.12 236.97 73.12 242.49Z"
        fill="white" />
    <defs>
        <linearGradient id="paint0_linear_21_305" x1="85" y1="-27" x2="85" y2="214"
            gradientUnits="userSpaceOnUse">
            <stop offset="0.151633" stop-color="white" stop-opacity="0" />
            <stop offset="1" stop-color="white" />
        </linearGradient>
    </defs>
</svg>
