<svg width="16" height="16" viewBox="0 0 16 16" fill="none" xmlns="http://www.w3.org/2000/svg">
    <rect width="16" height="16" fill="white" fill-opacity="0.01" />
    <path
        d="M14 4H10.4142L8.70715 2.29295C8.61429 2.20008 8.50405 2.1264 8.38271 2.07614C8.26138 2.02587 8.13133 2 8 2H2C1.73478 2 1.48043 2.10536 1.29289 2.29289C1.10536 2.48043 1 2.73478 1 3V13C1 13.2652 1.10536 13.5196 1.29289 13.7071C1.48043 13.8946 1.73478 14 2 14H14C14.2652 14 14.5196 13.8946 14.7071 13.7071C14.8946 13.5196 15 13.2652 15 13V5C15 4.73478 14.8946 4.48043 14.7071 4.29289C14.5196 4.10536 14.2652 4 14 4ZM4 13V7H8V10.085L6.705 8.795L6 9.5L8.5 12L11 9.5L10.295 8.795L9 10.085V7C8.99967 6.73489 8.89421 6.48072 8.70674 6.29326C8.51928 6.10579 8.26511 6.00033 8 6H4C3.73488 6.00033 3.48072 6.10579 3.29326 6.29326C3.10579 6.48072 3.00033 6.73489 3 7V13H2V3H8L10 5H14V6H11V7H14V13H4Z"
        fill="#161616" />
</svg>
