<svg width="16" height="16" viewBox="0 0 16 16" fill="none" xmlns="http://www.w3.org/2000/svg">
    <rect width="16" height="16" fill="white" fill-opacity="0.01" style="mix-blend-mode:multiply"/>
    <path d="M13 14H3C2.73487 13.9997 2.48068 13.8943 2.2932 13.7068C2.10572 13.5193 2.00028 13.2651 2 13V5.5C2.00028 5.23487 2.10572 4.98068 2.2932 4.7932C2.48068 4.60572 2.73487 4.50028 3 4.5H5.83325C6.04967 4.50035 6.26021 4.57049 6.4336 4.7L8.16675 6H13C13.2651 6.00028 13.5193 6.10572 13.7068 6.2932C13.8943 6.48068 13.9997 6.73487 14 7V13C13.9997 13.2651 13.8943 13.5193 13.7068 13.7068C13.5193 13.8943 13.2651 13.9997 13 14ZM5.83325 5.5H2.99925L3 13H13V7H7.83325L5.83325 5.5Z" fill="#161616"/>
    <path d="M14 4.5H8.83325L6.83325 3H3V2H6.83325C7.04967 2.00035 7.26021 2.07049 7.4336 2.2L9.16675 3.5H14V4.5Z" fill="#161616"/>
</svg>
