<svg width="16" height="16" viewBox="0 0 16 16" fill="none" xmlns="http://www.w3.org/2000/svg">
    <rect width="16" height="16" fill="white" fill-opacity="0.01" style="mix-blend-mode:multiply" />
    <path
        d="M15 14.2929L12.6558 11.9487C13.2823 11.1423 13.5779 10.1274 13.4824 9.11065C13.3869 8.0939 12.9075 7.15178 12.1417 6.47613C11.376 5.80048 10.3815 5.4421 9.36074 5.47398C8.34001 5.50585 7.36981 5.92558 6.6477 6.6477C5.92558 7.36981 5.50585 8.34001 5.47398 9.36074C5.4421 10.3815 5.80048 11.376 6.47613 12.1417C7.15178 12.9075 8.0939 13.3869 9.11065 13.4824C10.1274 13.5779 11.1423 13.2823 11.9487 12.6558L14.2929 15L15 14.2929ZM9.5 12.5C8.90666 12.5 8.32664 12.3241 7.83329 11.9944C7.33994 11.6648 6.95542 11.1962 6.72836 10.6481C6.5013 10.0999 6.44189 9.49667 6.55764 8.91473C6.6734 8.33279 6.95912 7.79824 7.37868 7.37868C7.79824 6.95912 8.33279 6.6734 8.91473 6.55764C9.49667 6.44189 10.0999 6.5013 10.6481 6.72836C11.1962 6.95542 11.6648 7.33994 11.9944 7.83329C12.3241 8.32664 12.5 8.90666 12.5 9.5C12.4991 10.2954 12.1828 11.0579 11.6204 11.6204C11.0579 12.1828 10.2954 12.4991 9.5 12.5Z"
        fill="#161616" />
    <path d="M5 6H1V7H5V6Z" fill="#161616" />
    <path d="M9 1H1V2H9V1Z" fill="#161616" />
    <path d="M9 3.5H1V4.5H9V3.5Z" fill="#161616" />
</svg>
