<svg fill="none" height="16" viewBox="0 0 16 16" width="16" xmlns="http://www.w3.org/2000/svg">
    <rect style="mix-blend-mode:multiply" fill="white" fill-opacity="0.01" height="16" width="16" />
    <path
        d="M5.805 14.9602C5.70268 14.917 5.61765 14.841 5.56333 14.7441C5.50901 14.6472 5.48849 14.535 5.505 14.4252L6.415 8.50018H4C3.92344 8.50224 3.84743 8.48668 3.77783 8.45471C3.70823 8.42274 3.64691 8.3752 3.5986 8.31577C3.55028 8.25635 3.51626 8.18661 3.49917 8.11196C3.48208 8.0373 3.48236 7.95971 3.5 7.88518L5 1.38518C5.0264 1.27331 5.09053 1.17396 5.1816 1.10384C5.27266 1.03371 5.38511 0.997107 5.5 1.00018H10.5C10.5747 0.999925 10.6485 1.01641 10.716 1.04842C10.7835 1.08044 10.8429 1.12717 10.89 1.18518C10.9377 1.24384 10.9715 1.31257 10.9888 1.38619C11.0062 1.4598 11.0066 1.53639 10.99 1.61018L10.125 5.50018H12.5C12.5937 5.49999 12.6856 5.52614 12.7652 5.57565C12.8447 5.62516 12.9088 5.69603 12.95 5.78018C12.9858 5.86095 12.9996 5.94977 12.99 6.0376C12.9803 6.12543 12.9475 6.20913 12.895 6.28018L6.395 14.7802C6.35107 14.8453 6.29242 14.8992 6.22379 14.9374C6.15517 14.9756 6.0785 14.9971 6 15.0002C5.9331 14.9989 5.867 14.9854 5.805 14.9602ZM8.875 6.50018L9.87501 2.00018H5.9L4.63 7.50018H7.585L6.79 12.6402L11.5 6.50018H8.875Z"
        fill="#161616" />
</svg>
